<svg xmlns="http://www.w3.org/2000/svg" viewBox="0 0 64 64" role="img" aria-label="Clean My Car">
  <defs>
    <linearGradient id="m-bg" x1="0%" y1="0%" x2="100%" y2="100%">
      <stop offset="0%" stop-color="#4B49AC"/>
      <stop offset="100%" stop-color="#7DA0FA"/>
    </linearGradient>
  </defs>
  <rect width="64" height="64" rx="14" fill="url(#m-bg)"/>
  <!-- Simplified car -->
  <path
    fill="#FFFFFF"
    d="M12 38.5c0-1.2.7-2.3 1.8-2.8l4.2-2.1c1.4-.7 3-.8 4.5-.3l8.5 2.2c1 .3 2.1.2 3-.3l5.2-2.6c1.3-.7 2.9-.6 4.1.2l4.6 2.9c1.4.9 2.3 2.4 2.3 4.1V44c0 1.7-1.3 3-3 3H15c-1.7 0-3-1.3-3-3v-5.5z"
  />
  <path
    fill="#FFFFFF"
    d="M16 31c.7-3.5 3.5-6.3 7-7.1 2.2-.5 4.5-.2 6.4.9l3.2 1.9c.9.5 1.9.6 2.9.4l4-0.8c2.9-.6 5.9.7 7.4 3.2l.9 1.5H16.4z"
  />
  <circle cx="22" cy="45" r="4" fill="#1a1a2e"/>
  <circle cx="22" cy="45" r="1.8" fill="#FFFFFF"/>
  <circle cx="44" cy="45" r="4" fill="#1a1a2e"/>
  <circle cx="44" cy="45" r="1.8" fill="#FFFFFF"/>
  <!-- Drop -->
  <path fill="#98BDFF" d="M46 18c0 5.2-3.6 9.4-8 9.4s-8-4.2-8-9.4C30 13.5 35.5 6.5 38 3.5 40.5 6.5 46 13.5 46 18z"/>
  <!-- Spark -->
  <path fill="#F3797E" d="M52 16l1.1 2.5 2.6.6-2 1.7.6 2.6-2.3-1.4-2.3 1.4.6-2.6-2-1.7 2.6-.6z"/>
</svg>
